<?xml version="1.0" ?><!-- Uploaded to: SVG Repo, www.svgrepo.com, Generator: SVG Repo Mixer Tools -->
<svg width="800px" height="800px" viewBox="0 0 1000 1000" id="Layer_2" version="1.1" xml:space="preserve" xmlns="http://www.w3.org/2000/svg" xmlns:xlink="http://www.w3.org/1999/xlink"><path d="M843.528,668.067l2.031-48.707l-377.317-8.577c-11.703-0.371-23.33-2.342-34.536-5.864  c-48.664-15.317-99.216-23.085-150.248-23.085c-8.661,0-17.398,0.227-25.975,0.674l-87.589,4.558l29.522,86.924  c2.915,8.585,10.97,14.357,20.036,14.357h602.938C833.729,688.347,843.056,679.399,843.528,668.067z" style="fill:#231F20;"/><path d="M775.747,564.892v-53.467c0-7.709,4.996-13.952,11.164-13.952h31.469  c6.167,0,11.163-6.243,11.163-13.944v-22.833c0-7.701-4.996-13.944-11.163-13.944H491.528c-3.8,0-7.338,2.41-9.394,6.403  l-20.949,40.71H227.891c-4.17,0-7.55,3.38-7.55,7.55s3.38,7.55,7.55,7.55H245.5v21.251l-93.266,4.85l12.874,37.905l91.633-4.769  c8.906-0.464,17.819-0.691,26.716-0.691c52.372,0,104.49,7.987,154.545,23.742c9.942,3.126,20.271,4.886,30.694,5.215l189.931,4.322  l116.791,2.654l70.739,1.609l1.609-38.52L775.747,564.892z M285.099,528.951c-0.547-0.002-1.094-0.011-1.641-0.011  c-7.612,0-15.236,0.177-22.857,0.516v-20.491h24.499V528.951z M324.697,530.606c-8.15-0.656-16.319-1.115-24.499-1.382v-20.259  h24.499V530.606z M363.875,534.175c-8.033-0.63-16.059-1.348-24.077-2.158v-23.052h24.077V534.175z M403.895,536.613  c-8.311-0.365-16.619-0.815-24.92-1.355v-26.293h24.92V536.613z M438.649,537.661c-6.553-0.109-13.104-0.27-19.654-0.477v-28.218  h34.42L438.649,537.661z M534.194,525.107c0,2.915-2.359,5.283-5.274,5.283h-23.641c-2.915,0-5.274-2.367-5.274-5.283v-9.032  c0-2.915,2.359-5.274,5.274-5.274h23.641c2.916,0,5.274,2.359,5.274,5.274V525.107z M534.194,486.368  c0,2.915-2.359,5.283-5.274,5.283h-23.641c-2.915,0-5.274-2.368-5.274-5.283v-9.032c0-2.915,2.359-5.274,5.274-5.274h23.641  c2.916,0,5.274,2.359,5.274,5.274V486.368z M588.352,525.107c0,2.915-2.367,5.283-5.282,5.283h-23.642  c-2.915,0-5.274-2.367-5.274-5.283v-9.032c0-2.915,2.359-5.274,5.274-5.274h23.642c2.915,0,5.282,2.359,5.282,5.274V525.107z   M588.352,486.368c0,2.915-2.367,5.283-5.282,5.283h-23.642c-2.915,0-5.274-2.368-5.274-5.283v-9.032  c0-2.915,2.359-5.274,5.274-5.274h23.642c2.915,0,5.282,2.359,5.282,5.274V486.368z M642.501,525.107  c0,2.915-2.368,5.283-5.283,5.283h-23.641c-2.915,0-5.274-2.367-5.274-5.283v-9.032c0-2.915,2.359-5.274,5.274-5.274h23.641  c2.916,0,5.283,2.359,5.283,5.274V525.107z M642.501,486.368c0,2.915-2.368,5.283-5.283,5.283h-23.641  c-2.915,0-5.274-2.368-5.274-5.283v-9.032c0-2.915,2.359-5.274,5.274-5.274h23.641c2.916,0,5.283,2.359,5.283,5.274V486.368z   M696.65,525.107c0,2.915-2.367,5.283-5.274,5.283h-23.65c-2.916,0-5.274-2.367-5.274-5.283v-9.032c0-2.915,2.358-5.274,5.274-5.274  h23.65c2.907,0,5.274,2.359,5.274,5.274V525.107z M696.65,486.368c0,2.915-2.367,5.283-5.274,5.283h-23.65  c-2.916,0-5.274-2.368-5.274-5.283v-9.032c0-2.915,2.358-5.274,5.274-5.274h23.65c2.907,0,5.274,2.359,5.274,5.274V486.368z   M750.799,525.107c0,2.915-2.359,5.283-5.274,5.283h-23.65c-2.907,0-5.274-2.367-5.274-5.283v-9.032  c0-2.915,2.368-5.274,5.274-5.274h23.65c2.915,0,5.274,2.359,5.274,5.274V525.107z M750.799,486.368  c0,2.915-2.359,5.283-5.274,5.283h-23.65c-2.907,0-5.274-2.368-5.274-5.283v-9.032c0-2.915,2.368-5.274,5.274-5.274h23.65  c2.915,0,5.274,2.359,5.274,5.274V486.368z" style="fill:#231F20;"/><path d="M696.09,311.653h-28.566c-1.83,0-3.429,1.234-3.892,3.004l-12.833,51.035h-40.542  c-5.805,0-10.995,3.606-13.026,9.04l-21.214,56.871c-0.101,0.278-0.194,0.548-0.278,0.826h204.313v-52.835  c0-7.676-6.218-13.902-13.894-13.902h-28.079l6.768-25.848c0.667-2.55-1.256-5.043-3.892-5.043h-28.566  c-1.83,0-3.429,1.234-3.893,3.004l-7.302,27.886h-13.532l12.32-48.997C700.65,314.146,698.727,311.653,696.09,311.653z   M642.501,405.797c0,2.915-2.368,5.274-5.283,5.274h-23.641c-2.915,0-5.274-2.359-5.274-5.274v-9.032  c0-2.915,2.359-5.283,5.274-5.283h23.641c2.916,0,5.283,2.368,5.283,5.283V405.797z M716.601,396.765  c0-2.915,2.368-5.283,5.274-5.283h23.65c2.915,0,5.274,2.368,5.274,5.283v9.032c0,2.915-2.359,5.274-5.274,5.274h-23.65  c-2.907,0-5.274-2.359-5.274-5.274V396.765z M691.376,391.482c2.907,0,5.274,2.368,5.274,5.283v9.032  c0,2.915-2.367,5.274-5.274,5.274h-23.65c-2.916,0-5.274-2.359-5.274-5.274v-9.032c0-2.915,2.358-5.283,5.274-5.283H691.376z" style="fill:#231F20;"/></svg>